<svg xmlns="http://www.w3.org/2000/svg" aria-hidden="true" style="position:absolute;width:0;height:0;overflow:hidden"><defs><symbol id="icon-email-black" viewBox="0 0 24 32"><path d="M20 8H4c-1.1 0-1.989.9-1.989 2L2 22c0 1.1.9 2 2 2h16c1.1 0 2-.9 2-2V10c0-1.1-.9-2-2-2zm-.4 4.251-7.069 4.419c-.151.094-.334.15-.531.15s-.38-.056-.535-.153l.004.002L4.4 12.25a.85.85 0 1 1 .902-1.437L11.999 15l6.7-4.191a.849.849 0 1 1 .903 1.437l-.004.002z"/></symbol><symbol id="icon-icon-send" viewBox="0 0 38 32"><path fill="#fff" d="M38.4 0 0 18l12.272 3.787L31.2 7 16.803 23.186l.011.005-.014-.005V32l6.882-6.691L32.402 28 38.4 0z" style="fill:var(--color1, #fff)"/></symbol><symbol id="icon-person-black" viewBox="0 0 32 32"><path fill="#4d5ae5" d="M16 16a5.333 5.333 0 1 0 0-10.666A5.333 5.333 0 1 0 16 16zm0 2.667c-3.561 0-10.667 1.787-10.667 5.333v1.333c0 .732.599 1.333 1.333 1.333h18.667c.732 0 1.333-.601 1.333-1.333V24c0-3.547-7.108-5.333-10.667-5.333z" style="fill:var(--color2, #4d5ae5)"/></symbol><symbol id="icon-phone-black-18dp" viewBox="0 0 26 32"><path d="m19.355 17.065-2.262-.258a1.77 1.77 0 0 0-1.461.508l-1.638 1.638c-2.541-1.311-4.56-3.329-5.836-5.795l-.035-.075 1.649-1.648a1.766 1.766 0 0 0 .506-1.468l.001.008-.258-2.245a1.784 1.784 0 0 0-1.77-1.577H6.708c-1.007 0-1.844.837-1.781 1.844.471 7.606 6.555 13.681 14.153 14.154 1.007.062 1.844-.775 1.844-1.782v-1.551c0-.905-.682-1.651-1.56-1.753l-.008-.001z"/></symbol><symbol id="icon-close-black" viewBox="0 0 32 32"><path d="M32 3.223 28.777 0 16 12.777 3.223 0 0 3.223 12.777 16 0 28.777 3.223 32 16 19.223 28.777 32 32 28.777 19.223 16 32 3.223z"/></symbol></defs></svg>